name analog
datacolumns 19
datarows 50
range 0.3145 0.339
endheader
time	ground_force_vx	ground_force_vy	ground_force_vz	ground_force_px	ground_force_py	ground_force_pz	l_ground_force_vx	l_ground_force_vy	l_ground_force_vz	l_ground_force_px	l_ground_force_py	l_ground_force_pz	ground_torque_x	ground_torque_y	ground_torque_z	l_ground_torque_x	l_ground_torque_y	l_ground_torque_z
0.3145	-0.0	-0.0	-0.0	-0.4743429720401764	-7.256498336791992	-630.5725708007812	-0.0	-0.0	-0.0	-0.0	-0.0	-0.0	-0.0	-0.0	-0.0	-0.0	-0.0	-0.0
0.315	-0.0	-0.0	-0.0	-0.478570818901062	-7.073791027069092	-632.7697143554688	-0.0	-0.0	-0.0	-0.0	-0.0	-0.0	-0.0	-0.0	-0.0	-0.0	-0.0	-0.0
0.3155	-0.0	-0.0	-0.0	-0.9813156127929688	-7.547689437866211	-633.1078491210938	-0.0	-0.0	-0.0	-0.0	-0.0	-0.0	-0.0	-0.0	-0.0	-0.0	-0.0	-0.0
0.316	-0.0	-0.0	-0.0	-1.2489471435546875	-7.782818794250488	-634.3111572265625	-0.0	-0.0	-0.0	-0.0	-0.0	-0.0	-0.0	-0.0	-0.0	-0.0	-0.0	-0.0
0.3165	-0.0	-0.0	-0.0	-1.809218525886536	-7.668757915496826	-632.7993774414062	-0.0	-0.0	-0.0	-0.0	-0.0	-0.0	-0.0	-0.0	-0.0	-0.0	-0.0	-0.0
0.317	-0.0	-0.0	-0.0	-2.822801351547241	-7.123843669891357	-633.6178588867188	-0.0	-0.0	-0.0	-0.0	-0.0	-0.0	-0.0	-0.0	-0.0	-0.0	-0.0	-0.0
0.3175	-0.0	-0.0	-0.0	-3.8422255516052246	-6.923489093780518	-632.0784301757812	-0.0	-0.0	-0.0	-0.0	-0.0	-0.0	-0.0	-0.0	-0.0	-0.0	-0.0	-0.0
0.318	-0.0	-0.0	-0.0	-4.192893981933594	-6.449044704437256	-633.9580078125	-0.0	-0.0	-0.0	-0.0	-0.0	-0.0	-0.0	-0.0	-0.0	-0.0	-0.0	-0.0
0.3185	-0.0	-0.0	-0.0	-4.166719913482666	-5.316334247589111	-635.7344360351562	-0.0	-0.0	-0.0	-0.0	-0.0	-0.0	-0.0	-0.0	-0.0	-0.0	-0.0	-0.0
0.319	-0.0	-0.0	-0.0	-4.308501243591309	-5.17206621170044	-637.231201171875	-0.0	-0.0	-0.0	-0.0	-0.0	-0.0	-0.0	-0.0	-0.0	-0.0	-0.0	-0.0
0.3195	-0.0	-0.0	-0.0	-4.431549549102783	-4.454239368438721	-639.9710693359375	-0.0	-0.0	-0.0	-0.0	-0.0	-0.0	-0.0	-0.0	-0.0	-0.0	-0.0	-0.0
0.32	-0.0	-0.0	-0.0	-3.985418319702149	-4.636825084686279	-640.783447265625	-0.0	-0.0	-0.0	-0.0	-0.0	-0.0	-0.0	-0.0	-0.0	-0.0	-0.0	-0.0
0.3205	-0.0	-0.0	-0.0	-3.4482195377349854	-4.398352146148682	-642.2112426757812	-0.0	-0.0	-0.0	-0.0	-0.0	-0.0	-0.0	-0.0	-0.0	-0.0	-0.0	-0.0
0.321	-0.0	-0.0	-0.0	-3.4532783031463623	-4.545650482177734	-645.7284545898438	-0.0	-0.0	-0.0	-0.0	-0.0	-0.0	-0.0	-0.0	-0.0	-0.0	-0.0	-0.0
0.3215	-0.0	-0.0	-0.0	-2.3166325092315674	-5.083271026611328	-648.5654907226562	-0.0	-0.0	-0.0	-0.0	-0.0	-0.0	-0.0	-0.0	-0.0	-0.0	-0.0	-0.0
0.322	-0.0	-0.0	-0.0	-2.1716251373291016	-5.049887657165527	-650.5574951171875	-0.0	-0.0	-0.0	-0.0	-0.0	-0.0	-0.0	-0.0	-0.0	-0.0	-0.0	-0.0
0.3225	-0.0	-0.0	-0.0	-1.604784369468689	-5.55445671081543	-651.7293701171875	-0.0	-0.0	-0.0	-0.0	-0.0	-0.0	-0.0	-0.0	-0.0	-0.0	-0.0	-0.0
0.323	-0.0	-0.0	-0.0	-1.3389968872070312	-6.1205668449401855	-652.4400024414062	-0.0	-0.0	-0.0	-0.0	-0.0	-0.0	-0.0	-0.0	-0.0	-0.0	-0.0	-0.0
0.3235	-0.0	-0.0	-0.0	-1.606405258178711	-6.29752254486084	-653.3829345703125	-0.0	-0.0	-0.0	-0.0	-0.0	-0.0	-0.0	-0.0	-0.0	-0.0	-0.0	-0.0
0.324	-0.0	-0.0	-0.0	-1.784210205078125	-6.089692115783691	-650.3199462890625	-0.0	-0.0	-0.0	-0.0	-0.0	-0.0	-0.0	-0.0	-0.0	-0.0	-0.0	-0.0
0.3245	-0.0	-0.0	-0.0	-1.9026575088500977	-5.733984470367432	-651.2646484375	-0.0	-0.0	-0.0	-0.0	-0.0	-0.0	-0.0	-0.0	-0.0	-0.0	-0.0	-0.0
0.325	-0.0	-0.0	-0.0	-2.6763153076171875	-4.72394609451294	-649.1445922851562	-0.0	-0.0	-0.0	-0.0	-0.0	-0.0	-0.0	-0.0	-0.0	-0.0	-0.0	-0.0
0.3255	-0.0	-0.0	-0.0	-3.4195730686187744	-3.743965864181519	-647.9671630859375	-0.0	-0.0	-0.0	-0.0	-0.0	-0.0	-0.0	-0.0	-0.0	-0.0	-0.0	-0.0
0.326	-0.0	-0.0	-0.0	-4.163020610809326	-2.912276268005371	-647.1471557617188	-0.0	-0.0	-0.0	-0.0	-0.0	-0.0	-0.0	-0.0	-0.0	-0.0	-0.0	-0.0
0.3265	-0.0	-0.0	-0.0	-4.668903350830078	-1.960209846496582	-647.6134033203125	-0.0	-0.0	-0.0	-0.0	-0.0	-0.0	-0.0	-0.0	-0.0	-0.0	-0.0	-0.0
0.327	-0.0	-0.0	-0.0	-4.8782172203063965	-1.3652913570404053	-645.0254516601562	-0.0	-0.0	-0.0	-0.0	-0.0	-0.0	-0.0	-0.0	-0.0	-0.0	-0.0	-0.0
0.3275	-0.0	-0.0	-0.0	-5.116134643554688	-1.040553331375122	-645.6129150390625	-0.0	-0.0	-0.0	-0.0	-0.0	-0.0	-0.0	-0.0	-0.0	-0.0	-0.0	-0.0
0.328	-0.0	-0.0	-0.0	-4.78720235824585	-0.7733194231987	-645.7322998046875	-0.0	-0.0	-0.0	-0.0	-0.0	-0.0	-0.0	-0.0	-0.0	-0.0	-0.0	-0.0
0.3285	-0.0	-0.0	-0.0	-4.015925407409668	-0.9171443581581116	-647.4984741210938	-0.0	-0.0	-0.0	-0.0	-0.0	-0.0	-0.0	-0.0	-0.0	-0.0	-0.0	-0.0
0.329	-0.0	-0.0	-0.0	-3.1223678588867188	-1.246125340461731	-646.5525512695312	-0.0	-0.0	-0.0	-0.0	-0.0	-0.0	-0.0	-0.0	-0.0	-0.0	-0.0	-0.0
0.3295	-0.0	-0.0	-0.0	-2.5889732837677	-1.5777482986450195	-647.5064086914062	-0.0	-0.0	-0.0	-0.0	-0.0	-0.0	-0.0	-0.0	-0.0	-0.0	-0.0	-0.0
0.33	-0.0	-0.0	-0.0	-2.171481847763061	-2.528130292892456	-647.7401733398438	-0.0	-0.0	-0.0	-0.0	-0.0	-0.0	-0.0	-0.0	-0.0	-0.0	-0.0	-0.0
0.3305	-0.0	-0.0	-0.0	-1.3686704635620115	-3.262687921524048	-647.9736328125	-0.0	-0.0	-0.0	-0.0	-0.0	-0.0	-0.0	-0.0	-0.0	-0.0	-0.0	-0.0
0.331	-0.0	-0.0	-0.0	-1.1316628456115725	-3.1170716285705566	-646.6724853515625	-0.0	-0.0	-0.0	-0.0	-0.0	-0.0	-0.0	-0.0	-0.0	-0.0	-0.0	-0.0
0.3315	-0.0	-0.0	-0.0	-0.6271923780441284	-2.9304378032684326	-644.44287109375	-0.0	-0.0	-0.0	-0.0	-0.0	-0.0	-0.0	-0.0	-0.0	-0.0	-0.0	-0.0
0.332	-0.0	-0.0	-0.0	-0.3042632341384887	-2.089550256729126	-643.9804077148438	-0.0	-0.0	-0.0	-0.0	-0.0	-0.0	-0.0	-0.0	-0.0	-0.0	-0.0	-0.0
0.3325	-0.0	-0.0	-0.0	-0.6275947093963623	-0.1198799833655357	-641.0092163085938	-0.0	-0.0	-0.0	-0.0	-0.0	-0.0	-0.0	-0.0	-0.0	-0.0	-0.0	-0.0
0.333	-0.0	-0.0	-0.0	-0.4976617991924286	0.4523868858814239	-639.8264770507812	-0.0	-0.0	-0.0	-0.0	-0.0	-0.0	-0.0	-0.0	-0.0	-0.0	-0.0	-0.0
0.3335	-0.0	-0.0	-0.0	-0.4388894438743591	1.0113372802734375	-638.10205078125	-0.0	-0.0	-0.0	-0.0	-0.0	-0.0	-0.0	-0.0	-0.0	-0.0	-0.0	-0.0
0.334	-0.0	-0.0	-0.0	-0.0544755756855011	1.2206122875213623	-637.6124267578125	-0.0	-0.0	-0.0	-0.0	-0.0	-0.0	-0.0	-0.0	-0.0	-0.0	-0.0	-0.0
0.3345	-0.0	-0.0	-0.0	-0.0661368370056152	1.0695648193359375	-635.1405639648438	-0.0	-0.0	-0.0	-0.0	-0.0	-0.0	-0.0	-0.0	-0.0	-0.0	-0.0	-0.0
0.335	-0.0	-0.0	-0.0	0.3982667326927185	1.0654034614562988	-635.3707275390625	-0.0	-0.0	-0.0	-0.0	-0.0	-0.0	-0.0	-0.0	-0.0	-0.0	-0.0	-0.0
0.3355	-0.0	-0.0	-0.0	1.3337682485580444	0.2941777408123016	-634.7705078125	-0.0	-0.0	-0.0	-0.0	-0.0	-0.0	-0.0	-0.0	-0.0	-0.0	-0.0	-0.0
0.336	-0.0	-0.0	-0.0	2.020563125610352	0.4144015312194824	-634.118408203125	-0.0	-0.0	-0.0	-0.0	-0.0	-0.0	-0.0	-0.0	-0.0	-0.0	-0.0	-0.0
0.3365	-0.0	-0.0	-0.0	2.43522572517395	0.298697292804718	-631.7528076171875	-0.0	-0.0	-0.0	-0.0	-0.0	-0.0	-0.0	-0.0	-0.0	-0.0	-0.0	-0.0
0.337	-0.0	-0.0	-0.0	2.7705674171447754	0.2623541951179504	-630.2572631835938	-0.0	-0.0	-0.0	-0.0	-0.0	-0.0	-0.0	-0.0	-0.0	-0.0	-0.0	-0.0
0.3375	-0.0	-0.0	-0.0	2.482046365737915	0.4090036153793335	-627.4134521484375	-0.0	-0.0	-0.0	-0.0	-0.0	-0.0	-0.0	-0.0	-0.0	-0.0	-0.0	-0.0
0.338	-0.0	-0.0	-0.0	2.014878511428833	-0.293491393327713	-626.437744140625	-0.0	-0.0	-0.0	-0.0	-0.0	-0.0	-0.0	-0.0	-0.0	-0.0	-0.0	-0.0
0.3385	-0.0	-0.0	-0.0	1.7006688117980957	-0.9521143436431884	-625.8348388671875	-0.0	-0.0	-0.0	-0.0	-0.0	-0.0	-0.0	-0.0	-0.0	-0.0	-0.0	-0.0
0.339	-0.0	-0.0	-0.0	2.025996446609497	-1.0495747327804563	-623.26025390625	-0.0	-0.0	-0.0	-0.0	-0.0	-0.0	-0.0	-0.0	-0.0	-0.0	-0.0	-0.0
